<svg width="50" height="50" viewBox="0 0 50 50" fill="none" xmlns="http://www.w3.org/2000/svg">
<g clip-path="url(#clip0_11_27)">
<path d="M6.25 0C4.5924 0 3.00269 0.65848 1.83058 1.83058C0.65848 3.00269 0 4.5924 0 6.25L0 46.2281C6.56715e-05 46.5373 0.0918518 46.8395 0.263741 47.0965C0.435631 47.3535 0.679897 47.5537 0.965623 47.6718C1.25135 47.7899 1.56569 47.8206 1.86886 47.76C2.17203 47.6993 2.45041 47.5501 2.66875 47.3312L11.5844 38.4156C12.1703 37.8295 12.965 37.5002 13.7938 37.5H43.75C45.4076 37.5 46.9973 36.8415 48.1694 35.6694C49.3415 34.4973 50 32.9076 50 31.25V6.25C50 4.5924 49.3415 3.00269 48.1694 1.83058C46.9973 0.65848 45.4076 0 43.75 0L6.25 0ZM25 12.4781C30.2 7.13125 43.2031 16.4875 25 28.5156C6.79688 16.4844 19.8 7.13125 25 12.4781V12.4781Z" fill="#C58094"/>
</g>
<defs>
<clipPath id="clip0_11_27">
<rect width="50" height="50" fill="white"/>
</clipPath>
</defs>
</svg>
