<svg width="21" height="15" viewBox="0 0 21 15" fill="none" xmlns="http://www.w3.org/2000/svg">
<path d="M4.55923 5.97C4.33623 5.97 4.12223 6.004 3.90923 6.035C3.97823 5.803 4.04923 5.567 4.16323 5.355C4.27723 5.047 4.45523 4.78 4.63223 4.511C4.78023 4.22 5.04123 4.023 5.23323 3.774C5.43423 3.532 5.70823 3.371 5.92523 3.17C6.13823 2.96 6.41723 2.855 6.63923 2.707C6.87123 2.574 7.07323 2.427 7.28923 2.357L7.82823 2.135L8.30223 1.938L7.81723 0L7.22023 0.144C7.02923 0.192 6.79623 0.248 6.53123 0.315C6.26023 0.365 5.97123 0.502 5.64923 0.627C5.33123 0.769 4.96323 0.865 4.62123 1.093C4.27723 1.311 3.88023 1.493 3.53023 1.785C3.19123 2.086 2.78223 2.347 2.48023 2.73C2.15023 3.088 1.82423 3.464 1.57123 3.892C1.27823 4.3 1.07923 4.748 0.869227 5.191C0.679227 5.634 0.526227 6.087 0.401227 6.527C0.164227 7.409 0.0582273 8.247 0.0172273 8.964C-0.0167727 9.682 0.00322725 10.279 0.0452273 10.711C0.0602273 10.915 0.0882273 11.113 0.108227 11.25L0.133227 11.418L0.159227 11.412C0.337088 12.2428 0.746531 13.0063 1.34019 13.6142C1.93385 14.222 2.68747 14.6494 3.51387 14.8468C4.34026 15.0443 5.20567 15.0037 6.00998 14.7298C6.81429 14.456 7.52463 13.96 8.05884 13.2993C8.59304 12.6386 8.92927 11.8401 9.02864 10.9963C9.12802 10.1525 8.98646 9.29776 8.62036 8.53102C8.25426 7.76429 7.67857 7.11686 6.95988 6.66365C6.24119 6.21043 5.40888 5.96994 4.55923 5.97V5.97ZM15.5592 5.97C15.3362 5.97 15.1222 6.004 14.9092 6.035C14.9782 5.803 15.0492 5.567 15.1632 5.355C15.2772 5.047 15.4552 4.78 15.6322 4.511C15.7802 4.22 16.0412 4.023 16.2332 3.774C16.4342 3.532 16.7082 3.371 16.9252 3.17C17.1382 2.96 17.4172 2.855 17.6392 2.707C17.8712 2.574 18.0732 2.427 18.2892 2.357L18.8282 2.135L19.3022 1.938L18.8172 0L18.2202 0.144C18.0292 0.192 17.7962 0.248 17.5312 0.315C17.2602 0.365 16.9712 0.502 16.6492 0.627C16.3322 0.77 15.9632 0.865 15.6212 1.094C15.2772 1.312 14.8802 1.494 14.5302 1.786C14.1912 2.087 13.7822 2.348 13.4802 2.73C13.1502 3.088 12.8242 3.464 12.5712 3.892C12.2782 4.3 12.0792 4.748 11.8692 5.191C11.6792 5.634 11.5262 6.087 11.4012 6.527C11.1642 7.409 11.0582 8.247 11.0172 8.964C10.9832 9.682 11.0032 10.279 11.0452 10.711C11.0602 10.915 11.0882 11.113 11.1082 11.25L11.1332 11.418L11.1592 11.412C11.3371 12.2428 11.7465 13.0063 12.3402 13.6142C12.9339 14.222 13.6875 14.6494 14.5139 14.8468C15.3403 15.0443 16.2057 15.0037 17.01 14.7298C17.8143 14.456 18.5246 13.96 19.0588 13.2993C19.593 12.6386 19.9293 11.8401 20.0286 10.9963C20.128 10.1525 19.9865 9.29776 19.6204 8.53102C19.2543 7.76429 18.6786 7.11686 17.9599 6.66365C17.2412 6.21043 16.4089 5.96994 15.5592 5.97V5.97Z" fill="#ffffff05"/>
</svg>
